<mxfile host="app.diagrams.net" modified="2020-09-09T18:35:22.420Z" agent="5.0 (Windows NT 10.0; Win64; x64) AppleWebKit/537.36 (KHTML, like Gecko) Chrome/85.0.4183.83 Safari/537.36" etag="gV4GeiHsZ-mY9J0ZrTVu" version="13.6.9" type="github">
  <diagram id="JOyKmMf-eM4ld4PkHPoQ" name="Page-1">
    <mxGraphModel dx="898" dy="511" grid="1" gridSize="10" guides="1" tooltips="1" connect="1" arrows="1" fold="1" page="1" pageScale="1" pageWidth="827" pageHeight="1169" math="0" shadow="0">
      <root>
        <mxCell id="0" />
        <mxCell id="1" parent="0" />
        <mxCell id="qkDRgSr3KnTp2TUaRVc6-1" value="" style="rounded=0;whiteSpace=wrap;html=1;" parent="1" vertex="1">
          <mxGeometry x="40" y="50" width="120" height="60" as="geometry" />
        </mxCell>
        <mxCell id="qkDRgSr3KnTp2TUaRVc6-2" value="" style="rounded=0;whiteSpace=wrap;html=1;" parent="1" vertex="1">
          <mxGeometry x="353" y="40" width="120" height="60" as="geometry" />
        </mxCell>
        <mxCell id="qkDRgSr3KnTp2TUaRVc6-3" value="" style="rounded=0;whiteSpace=wrap;html=1;" parent="1" vertex="1">
          <mxGeometry x="70" y="410" width="120" height="60" as="geometry" />
        </mxCell>
        <mxCell id="qkDRgSr3KnTp2TUaRVc6-5" value="" style="triangle;whiteSpace=wrap;html=1;" parent="1" vertex="1">
          <mxGeometry x="690" y="220" width="100" height="120" as="geometry" />
        </mxCell>
        <mxCell id="qkDRgSr3KnTp2TUaRVc6-6" value="" style="rounded=0;whiteSpace=wrap;html=1;" parent="1" vertex="1">
          <mxGeometry x="520" y="40" width="120" height="60" as="geometry" />
        </mxCell>
        <mxCell id="qkDRgSr3KnTp2TUaRVc6-8" value="" style="endArrow=none;html=1;entryX=0;entryY=0.5;entryDx=0;entryDy=0;" parent="1" target="qkDRgSr3KnTp2TUaRVc6-5" edge="1">
          <mxGeometry width="50" height="50" relative="1" as="geometry">
            <mxPoint x="30" y="280" as="sourcePoint" />
            <mxPoint x="440" y="290" as="targetPoint" />
          </mxGeometry>
        </mxCell>
        <mxCell id="qkDRgSr3KnTp2TUaRVc6-9" value="" style="endArrow=classic;html=1;exitX=0.5;exitY=0;exitDx=0;exitDy=0;" parent="1" source="qkDRgSr3KnTp2TUaRVc6-3" edge="1">
          <mxGeometry width="50" height="50" relative="1" as="geometry">
            <mxPoint x="390" y="340" as="sourcePoint" />
            <mxPoint x="280" y="280" as="targetPoint" />
            <Array as="points" />
          </mxGeometry>
        </mxCell>
        <mxCell id="qkDRgSr3KnTp2TUaRVc6-11" value="" style="endArrow=classic;html=1;exitX=0.5;exitY=1;exitDx=0;exitDy=0;" parent="1" source="qkDRgSr3KnTp2TUaRVc6-1" edge="1">
          <mxGeometry width="50" height="50" relative="1" as="geometry">
            <mxPoint x="380" y="350" as="sourcePoint" />
            <mxPoint x="280" y="280" as="targetPoint" />
          </mxGeometry>
        </mxCell>
        <mxCell id="qkDRgSr3KnTp2TUaRVc6-12" value="" style="endArrow=classic;html=1;exitX=0.5;exitY=1;exitDx=0;exitDy=0;" parent="1" source="qkDRgSr3KnTp2TUaRVc6-2" edge="1">
          <mxGeometry width="50" height="50" relative="1" as="geometry">
            <mxPoint x="380" y="350" as="sourcePoint" />
            <mxPoint x="550" y="280" as="targetPoint" />
          </mxGeometry>
        </mxCell>
        <mxCell id="qkDRgSr3KnTp2TUaRVc6-15" value="Requirements Specification" style="text;html=1;strokeColor=none;fillColor=none;align=center;verticalAlign=middle;whiteSpace=wrap;rounded=0;" parent="1" vertex="1">
          <mxGeometry x="70" y="70" width="60" height="20" as="geometry" />
        </mxCell>
        <mxCell id="qkDRgSr3KnTp2TUaRVc6-18" value="Development&lt;br&gt;Sprint 1" style="text;html=1;strokeColor=none;fillColor=none;align=center;verticalAlign=middle;whiteSpace=wrap;rounded=0;" parent="1" vertex="1">
          <mxGeometry x="110" y="420" width="40" height="20" as="geometry" />
        </mxCell>
        <mxCell id="qkDRgSr3KnTp2TUaRVc6-20" value="Implementation&amp;nbsp;&lt;br&gt;Planning&lt;br&gt;" style="text;html=1;strokeColor=none;fillColor=none;align=center;verticalAlign=middle;whiteSpace=wrap;rounded=0;" parent="1" vertex="1">
          <mxGeometry x="393" y="60" width="40" height="20" as="geometry" />
        </mxCell>
        <mxCell id="qkDRgSr3KnTp2TUaRVc6-22" value="Final&lt;br&gt;Product" style="text;html=1;strokeColor=none;fillColor=none;align=center;verticalAlign=middle;whiteSpace=wrap;rounded=0;" parent="1" vertex="1">
          <mxGeometry x="710" y="270" width="40" height="20" as="geometry" />
        </mxCell>
        <mxCell id="qkDRgSr3KnTp2TUaRVc6-24" value="" style="endArrow=classic;html=1;" parent="1" edge="1">
          <mxGeometry width="50" height="50" relative="1" as="geometry">
            <mxPoint x="10" y="160" as="sourcePoint" />
            <mxPoint x="150" y="160" as="targetPoint" />
            <Array as="points" />
          </mxGeometry>
        </mxCell>
        <mxCell id="qkDRgSr3KnTp2TUaRVc6-25" value="" style="endArrow=classic;html=1;" parent="1" edge="1">
          <mxGeometry width="50" height="50" relative="1" as="geometry">
            <mxPoint x="20" y="210" as="sourcePoint" />
            <mxPoint x="200" y="210" as="targetPoint" />
          </mxGeometry>
        </mxCell>
        <mxCell id="qkDRgSr3KnTp2TUaRVc6-26" value="" style="endArrow=classic;html=1;" parent="1" edge="1">
          <mxGeometry width="50" height="50" relative="1" as="geometry">
            <mxPoint x="20" y="250" as="sourcePoint" />
            <mxPoint x="240" y="250" as="targetPoint" />
          </mxGeometry>
        </mxCell>
        <mxCell id="qkDRgSr3KnTp2TUaRVc6-27" value="&lt;br&gt;Requirements&lt;br&gt;as Concept" style="text;html=1;strokeColor=none;fillColor=none;align=center;verticalAlign=middle;whiteSpace=wrap;rounded=0;" parent="1" vertex="1">
          <mxGeometry x="5" y="90" width="110" height="90" as="geometry" />
        </mxCell>
        <mxCell id="qkDRgSr3KnTp2TUaRVc6-29" value="Analyse&lt;br&gt;and&lt;br&gt;Specification" style="text;html=1;strokeColor=none;fillColor=none;align=center;verticalAlign=middle;whiteSpace=wrap;rounded=0;" parent="1" vertex="1">
          <mxGeometry y="180" width="120" height="20" as="geometry" />
        </mxCell>
        <mxCell id="qkDRgSr3KnTp2TUaRVc6-33" value="Validation&lt;br&gt;" style="text;html=1;strokeColor=none;fillColor=none;align=center;verticalAlign=middle;whiteSpace=wrap;rounded=0;" parent="1" vertex="1">
          <mxGeometry x="30" y="230" width="40" height="20" as="geometry" />
        </mxCell>
        <mxCell id="qkDRgSr3KnTp2TUaRVc6-36" value="" style="endArrow=classic;html=1;" parent="1" edge="1">
          <mxGeometry width="50" height="50" relative="1" as="geometry">
            <mxPoint x="293" y="120" as="sourcePoint" />
            <mxPoint x="423" y="120" as="targetPoint" />
          </mxGeometry>
        </mxCell>
        <mxCell id="qkDRgSr3KnTp2TUaRVc6-37" value="" style="endArrow=classic;html=1;" parent="1" edge="1">
          <mxGeometry width="50" height="50" relative="1" as="geometry">
            <mxPoint x="293" y="150" as="sourcePoint" />
            <mxPoint x="450" y="150" as="targetPoint" />
          </mxGeometry>
        </mxCell>
        <mxCell id="qkDRgSr3KnTp2TUaRVc6-38" value="" style="endArrow=classic;html=1;" parent="1" edge="1">
          <mxGeometry width="50" height="50" relative="1" as="geometry">
            <mxPoint x="293" y="180" as="sourcePoint" />
            <mxPoint x="470" y="180" as="targetPoint" />
          </mxGeometry>
        </mxCell>
        <mxCell id="qkDRgSr3KnTp2TUaRVc6-39" value="" style="endArrow=classic;html=1;" parent="1" edge="1">
          <mxGeometry width="50" height="50" relative="1" as="geometry">
            <mxPoint x="293" y="220" as="sourcePoint" />
            <mxPoint x="493" y="220" as="targetPoint" />
          </mxGeometry>
        </mxCell>
        <mxCell id="qkDRgSr3KnTp2TUaRVc6-40" value="" style="endArrow=classic;html=1;" parent="1" edge="1">
          <mxGeometry width="50" height="50" relative="1" as="geometry">
            <mxPoint x="293" y="259" as="sourcePoint" />
            <mxPoint x="523" y="259" as="targetPoint" />
          </mxGeometry>
        </mxCell>
        <mxCell id="qkDRgSr3KnTp2TUaRVc6-41" value="Game&lt;br&gt;Design&lt;br&gt;Document&lt;br&gt;" style="text;html=1;strokeColor=none;fillColor=none;align=center;verticalAlign=middle;whiteSpace=wrap;rounded=0;" parent="1" vertex="1">
          <mxGeometry x="280" y="90" width="90" height="20" as="geometry" />
        </mxCell>
        <mxCell id="qkDRgSr3KnTp2TUaRVc6-43" value="Architecture" style="text;html=1;strokeColor=none;fillColor=none;align=center;verticalAlign=middle;whiteSpace=wrap;rounded=0;" parent="1" vertex="1">
          <mxGeometry x="307" y="130" width="40" height="20" as="geometry" />
        </mxCell>
        <mxCell id="qkDRgSr3KnTp2TUaRVc6-44" value="Prototyping&lt;br&gt;" style="text;html=1;strokeColor=none;fillColor=none;align=center;verticalAlign=middle;whiteSpace=wrap;rounded=0;" parent="1" vertex="1">
          <mxGeometry x="307" y="160" width="40" height="20" as="geometry" />
        </mxCell>
        <mxCell id="qkDRgSr3KnTp2TUaRVc6-45" value="Test&amp;nbsp;&lt;br&gt;code&lt;br&gt;" style="text;html=1;strokeColor=none;fillColor=none;align=center;verticalAlign=middle;whiteSpace=wrap;rounded=0;" parent="1" vertex="1">
          <mxGeometry x="297" y="230" width="63" height="20" as="geometry" />
        </mxCell>
        <mxCell id="qkDRgSr3KnTp2TUaRVc6-47" value="Process&amp;nbsp;&lt;br&gt;Identification&lt;br&gt;" style="text;html=1;strokeColor=none;fillColor=none;align=center;verticalAlign=middle;whiteSpace=wrap;rounded=0;" parent="1" vertex="1">
          <mxGeometry x="307" y="190" width="40" height="20" as="geometry" />
        </mxCell>
        <mxCell id="qkDRgSr3KnTp2TUaRVc6-13" value="Testing" style="text;html=1;strokeColor=none;fillColor=none;align=center;verticalAlign=middle;whiteSpace=wrap;rounded=0;" parent="1" vertex="1">
          <mxGeometry x="560" y="60" width="40" height="20" as="geometry" />
        </mxCell>
        <mxCell id="qkDRgSr3KnTp2TUaRVc6-52" value="" style="rounded=0;whiteSpace=wrap;html=1;" parent="1" vertex="1">
          <mxGeometry x="354" y="410" width="120" height="60" as="geometry" />
        </mxCell>
        <mxCell id="qkDRgSr3KnTp2TUaRVc6-53" value="" style="endArrow=classic;html=1;exitX=0.5;exitY=0;exitDx=0;exitDy=0;" parent="1" source="qkDRgSr3KnTp2TUaRVc6-52" edge="1">
          <mxGeometry width="50" height="50" relative="1" as="geometry">
            <mxPoint x="330" y="360" as="sourcePoint" />
            <mxPoint x="550" y="280" as="targetPoint" />
          </mxGeometry>
        </mxCell>
        <mxCell id="qkDRgSr3KnTp2TUaRVc6-54" value="Implementation" style="text;html=1;strokeColor=none;fillColor=none;align=center;verticalAlign=middle;whiteSpace=wrap;rounded=0;" parent="1" vertex="1">
          <mxGeometry x="394" y="430" width="40" height="20" as="geometry" />
        </mxCell>
        <mxCell id="qkDRgSr3KnTp2TUaRVc6-55" value="Sprint&lt;br&gt;Planning" style="text;html=1;strokeColor=none;fillColor=none;align=center;verticalAlign=middle;whiteSpace=wrap;rounded=0;" parent="1" vertex="1">
          <mxGeometry x="40" y="340" width="40" height="20" as="geometry" />
        </mxCell>
        <mxCell id="qkDRgSr3KnTp2TUaRVc6-57" value="" style="endArrow=classic;html=1;" parent="1" edge="1">
          <mxGeometry width="50" height="50" relative="1" as="geometry">
            <mxPoint x="20" y="370" as="sourcePoint" />
            <mxPoint x="170" y="370" as="targetPoint" />
          </mxGeometry>
        </mxCell>
        <mxCell id="qkDRgSr3KnTp2TUaRVc6-58" value="" style="endArrow=classic;html=1;" parent="1" edge="1">
          <mxGeometry width="50" height="50" relative="1" as="geometry">
            <mxPoint x="570" y="100" as="sourcePoint" />
            <mxPoint x="680" y="279" as="targetPoint" />
          </mxGeometry>
        </mxCell>
      </root>
    </mxGraphModel>
  </diagram>
</mxfile>
